<?xml version="1.0" standalone="no"?>
<!DOCTYPE svg PUBLIC "-//W3C//DTD SVG 20010904//EN"
 "http://www.w3.org/TR/2001/REC-SVG-20010904/DTD/svg10.dtd">
<svg version="1.0" xmlns="http://www.w3.org/2000/svg"
 width="1000.000000pt" height="1000.000000pt" viewBox="0 0 1000.000000 1000.000000"
 preserveAspectRatio="xMidYMid meet">

<g transform="translate(0.000000,1000.000000) scale(0.100000,-0.100000)"
fill="#000000" stroke="none">
<path d="M5533 9410 c0 -25 2 -35 4 -22 2 12 2 32 0 45 -2 12 -4 2 -4 -23z"/>
<path d="M5522 9335 c0 -16 2 -22 5 -12 2 9 2 23 0 30 -3 6 -5 -1 -5 -18z"/>
<path d="M5550 9238 c0 -57 4 -119 9 -138 19 -70 34 -353 41 -740 l7 -395 -3
480 c-2 264 -5 512 -8 550 -17 221 -30 336 -38 341 -4 3 -8 -41 -8 -98z"/>
<path d="M8615 8392 c-33 -64 -82 -157 -109 -207 -27 -49 -120 -234 -208 -410
-268 -538 -521 -1037 -547 -1075 -9 -14 -23 -37 -30 -52 -20 -39 -138 -196
-190 -250 -40 -44 -81 -63 -81 -38 0 5 -13 24 -28 42 -69 81 -114 228 -93 299
20 65 52 42 82 -59 25 -85 48 -65 60 50 4 46 11 93 15 106 5 17 2 22 -13 22
-65 0 -91 146 -113 651 -5 109 -14 208 -21 225 -12 28 -13 25 -21 -46 -12
-113 -48 -350 -60 -395 -6 -22 -19 -59 -30 -82 -19 -39 -24 -42 -77 -51 -31
-6 -58 -9 -59 -7 -9 9 27 139 94 342 76 228 81 249 64 238 -44 -27 -237 -542
-329 -876 -37 -137 -65 -249 -62 -249 3 0 29 39 56 87 66 113 108 168 157 204
52 37 73 37 111 -3 61 -66 113 -227 148 -465 34 -238 78 -462 101 -521 27 -66
50 -77 92 -40 27 24 288 557 398 813 33 77 78 178 99 223 22 46 39 86 39 89 0
2 33 77 74 166 41 89 95 214 121 277 26 63 51 124 56 135 4 11 21 54 37 95 17
41 57 143 91 225 93 225 242 627 239 641 -2 7 -30 -40 -63 -104z"/>
<path d="M4800 8404 c0 -16 99 -157 149 -211 12 -12 21 -25 21 -29 0 -4 8 -14
18 -23 10 -9 33 -37 50 -63 18 -25 38 -52 44 -60 7 -7 32 -39 56 -70 23 -32
51 -62 62 -68 24 -13 24 -12 5 33 -21 50 -20 52 28 72 23 10 45 20 49 22 9 5
28 -64 28 -101 0 -46 16 -19 30 49 14 72 28 179 24 183 -1 2 -12 -14 -23 -36
-30 -60 -74 -92 -124 -92 -67 0 -94 24 -227 204 -85 116 -157 196 -176 196 -8
0 -14 -3 -14 -6z"/>
<path d="M8415 8148 c-178 -269 -334 -519 -420 -672 -16 -29 -35 -60 -41 -67
-6 -8 -14 -21 -18 -29 -3 -8 -14 -27 -24 -42 -19 -29 -31 -49 -153 -258 -47
-80 -106 -183 -131 -230 -26 -47 -58 -105 -72 -130 -32 -57 -35 -81 -5 -54 33
30 198 286 286 444 8 14 23 39 33 55 11 17 33 55 50 85 17 30 35 62 40 70 20
30 200 341 200 345 0 2 14 24 30 48 17 25 30 47 30 50 0 5 105 188 130 227 28
44 139 254 136 257 -2 2 -34 -42 -71 -99z"/>
<path d="M5603 7900 c0 -25 2 -35 4 -22 2 12 2 32 0 45 -2 12 -4 2 -4 -23z"/>
<path d="M4874 7858 c-22 -43 -24 -45 -33 -29 -22 34 -26 -2 -11 -99 l15 -105
14 93 c12 86 16 97 47 126 35 33 35 46 3 46 -11 0 -26 -14 -35 -32z"/>
<path d="M5603 7555 c0 -33 2 -45 4 -27 2 18 2 45 0 60 -2 15 -4 0 -4 -33z"/>
<path d="M5558 7436 c-9 -9 -27 -16 -40 -17 -20 -1 -19 -2 7 -10 32 -9 61 8
53 31 -3 9 -8 8 -20 -4z"/>
<path d="M4538 6475 c-15 -60 -37 -164 -48 -230 -18 -102 -46 -240 -67 -334
-4 -15 -2 -22 5 -17 15 9 46 110 82 269 20 88 61 369 58 395 -2 17 -13 -12
-30 -83z"/>
<path d="M5311 6435 c-1 -71 21 -339 30 -385 13 -63 37 -110 56 -110 19 0 27
28 14 44 -19 22 -59 149 -65 202 -3 27 -8 91 -11 143 -3 52 -10 101 -15 110
-8 14 -9 13 -9 -4z"/>
<path d="M4677 6295 c2 -60 11 -144 20 -185 17 -81 48 -154 63 -145 5 3 28
-26 51 -65 46 -78 56 -87 72 -71 8 8 5 19 -12 41 -28 39 -84 169 -112 262 -11
40 -28 86 -36 101 -8 16 -22 61 -32 100 l-18 72 4 -110z"/>
<path d="M5225 6280 c-15 -50 -41 -111 -57 -136 -34 -54 -54 -53 -105 3 -34
38 -41 37 -22 0 19 -37 51 -67 71 -67 32 0 74 52 105 130 26 65 50 160 40 160
-2 0 -16 -41 -32 -90z"/>
<path d="M5650 6237 c0 -2 7 -26 15 -54 18 -60 46 -89 71 -75 16 9 15 11 -4
21 -12 7 -33 34 -47 61 -21 42 -35 60 -35 47z"/>
<path d="M5827 6173 c-9 -21 -18 -58 -21 -83 -11 -111 -19 -159 -37 -211 -10
-30 -19 -67 -19 -82 0 -15 -4 -35 -9 -45 -8 -14 -23 -78 -36 -157 -2 -11 -9
-46 -15 -78 -6 -32 -13 -68 -14 -80 -1 -12 -5 -29 -9 -37 -3 -8 -8 -31 -11
-50 -11 -73 -24 -146 -30 -160 -18 -47 -27 -317 -13 -430 4 -41 10 -95 12
-120 5 -57 39 -239 49 -262 5 -10 5 -25 2 -34 -3 -8 -2 -23 3 -32 5 -9 14 -62
19 -117 8 -77 8 -117 -2 -174 -11 -66 -17 -79 -49 -106 l-36 -31 -125 4 c-83
3 -126 1 -126 -6 0 -6 -51 -13 -132 -16 -181 -8 -197 -8 -245 -1 -29 5 -43 3
-43 -4 0 -7 -33 -11 -99 -11 -55 0 -112 -5 -127 -10 -18 -7 -37 -7 -58 -1 -21
7 -44 7 -71 0 -22 -6 -74 -15 -115 -20 -101 -12 -168 -23 -210 -36 -82 -26
-108 -31 -167 -32 -81 -1 -122 23 -162 93 -53 92 -51 162 14 491 57 283 60
330 60 785 -1 659 -5 938 -14 962 -5 15 -10 -18 -15 -97 -3 -66 -12 -201 -19
-300 -13 -198 -14 -342 -7 -885 4 -321 3 -372 -12 -420 -58 -192 -97 -343
-103 -395 -11 -100 17 -234 77 -376 58 -136 72 -148 116 -106 15 14 41 29 57
33 17 4 35 10 40 14 28 21 539 57 860 61 83 1 166 5 185 9 19 5 127 11 240 14
159 5 216 3 255 -8 29 -8 44 -16 35 -19 -30 -12 -338 -32 -685 -47 -528 -22
-704 -34 -885 -59 -88 -13 -120 -21 -120 -33 0 -11 153 -7 465 11 94 6 276 15
405 21 235 10 509 25 672 36 48 4 99 4 113 0 l26 -7 -43 -52 c-148 -181 -228
-238 -351 -253 -29 -3 -63 -10 -77 -15 -14 -5 -92 -12 -175 -14 -82 -3 -204
-11 -270 -17 -172 -17 -327 -15 -405 5 -159 41 -309 127 -346 199 -8 16 -18
27 -21 24 -3 -3 -1 -12 6 -19 6 -8 43 -78 82 -157 101 -205 190 -293 368 -365
60 -24 76 -35 87 -60 10 -25 13 -234 13 -999 1 -782 4 -974 15 -999 50 -121
178 -159 318 -95 80 37 109 83 119 191 4 45 8 430 8 856 l1 774 25 68 c22 61
112 215 162 277 17 22 66 39 228 83 162 44 197 97 310 469 13 41 25 93 28 116
3 28 19 59 52 102 25 34 58 90 73 124 24 59 26 73 26 208 -1 141 -27 341 -70
525 -20 88 -19 674 1 805 65 416 71 552 30 759 -14 69 -28 128 -33 133 -5 5
-16 -8 -25 -29z m-758 -3349 c27 -6 31 -11 31 -40 0 -18 -4 -36 -10 -39 -5 -3
-10 -15 -10 -26 0 -10 -4 -19 -8 -19 -4 0 -16 -15 -27 -32 -10 -18 -27 -42
-37 -52 -10 -11 -18 -27 -18 -36 0 -8 -16 -24 -35 -34 -19 -11 -35 -25 -35
-33 0 -8 -8 -26 -17 -40 -16 -24 -18 -66 -21 -418 -2 -214 -5 -442 -7 -505 -2
-63 -6 -253 -9 -422 -5 -342 -3 -331 -79 -359 -47 -17 -71 -7 -63 27 4 15 2
32 -5 40 -8 10 -12 237 -13 836 l-2 823 -23 60 c-16 42 -25 90 -28 162 l-6
102 34 4 c57 7 354 7 388 1z"/>
<path d="M4968 6115 c-10 -44 -20 -107 -24 -140 -5 -56 -4 -59 10 -41 9 11 16
34 16 52 0 18 5 55 11 83 6 27 9 67 7 88 -3 33 -5 29 -20 -42z"/>
<path d="M4276 6090 c3 -19 9 -53 13 -75 11 -58 51 -145 67 -145 17 0 18 22 3
37 -6 6 -29 57 -50 114 -22 57 -37 88 -33 69z"/>
<path d="M4071 5925 c-2 -30 27 -173 39 -196 6 -11 16 -17 21 -13 7 4 5 12 -4
22 -8 10 -18 42 -22 72 -8 63 -32 145 -34 115z"/>
<path d="M4213 5880 c-18 -69 -25 -123 -15 -116 12 7 35 106 30 136 -3 20 -5
17 -15 -20z"/>
<path d="M2531 4709 c-15 -17 -21 -37 -22 -73 0 -28 -2 -60 -4 -71 -4 -23 -13
-161 -20 -290 -3 -68 -2 -83 5 -60 10 31 25 151 40 330 5 55 13 118 19 140 12
48 9 53 -18 24z"/>
<path d="M2730 4676 c0 -3 9 -10 20 -16 11 -6 20 -8 20 -6 0 3 -9 10 -20 16
-11 6 -20 8 -20 6z"/>
<path d="M2785 4643 c6 -5 58 -44 117 -87 59 -42 113 -85 120 -94 7 -10 31
-31 53 -47 22 -17 42 -33 45 -36 3 -3 19 -14 35 -23 17 -9 41 -24 55 -33 64
-44 -88 82 -214 177 -123 93 -241 173 -211 143z"/>
<path d="M7397 4594 c-153 -67 -404 -191 -412 -203 -13 -22 1 -22 56 1 77 32
400 194 423 212 36 29 12 25 -67 -10z"/>
<path d="M7516 4587 c-16 -12 -68 -62 -115 -112 -47 -49 -124 -129 -171 -178
l-85 -88 3 44 c4 52 -10 67 -72 74 -40 5 -132 -16 -201 -46 -11 -5 -37 -17
-58 -26 -67 -29 -171 -67 -200 -72 -15 -3 -30 -9 -33 -14 -10 -17 43 -8 150
26 142 45 196 46 238 4 l31 -30 -6 -92 c-3 -51 -12 -112 -20 -137 -9 -25 -23
-72 -32 -105 -9 -33 -20 -69 -25 -80 -34 -91 -54 -211 -47 -284 5 -49 10 -60
43 -89 21 -18 49 -35 63 -39 56 -14 214 34 486 149 105 45 237 98 295 119 97
34 257 101 391 161 105 48 174 77 202 83 15 4 30 11 33 16 3 5 12 9 20 9 8 0
34 9 56 20 23 11 47 20 53 20 7 0 47 18 90 40 43 22 83 40 89 40 15 0 334 136
363 155 13 9 23 20 23 25 0 12 -35 13 -58 1 -9 -5 -37 -14 -62 -21 -25 -7 -53
-16 -62 -21 -10 -5 -27 -9 -37 -9 -11 0 -30 -4 -43 -9 -13 -5 -43 -14 -68 -21
-25 -7 -56 -16 -70 -20 -14 -4 -43 -13 -65 -18 -133 -36 -282 -81 -440 -133
-261 -86 -318 -104 -435 -139 -58 -17 -116 -36 -129 -41 -48 -20 -169 -41
-282 -49 -115 -9 -117 -10 -223 -64 -58 -31 -114 -56 -125 -56 -23 0 -34 25
-22 48 4 9 11 35 15 57 4 22 11 51 15 65 5 14 14 45 21 70 13 47 57 176 83
245 8 22 18 40 22 40 15 0 46 -116 52 -193 3 -45 11 -86 17 -91 18 -14 215 7
359 38 116 26 135 31 177 41 43 11 73 18 178 40 26 6 59 12 74 14 14 2 32 7
39 12 7 4 31 11 54 15 22 4 60 12 85 18 25 6 56 13 70 15 91 19 179 40 205 49
17 7 33 11 37 9 4 -1 25 4 45 12 45 17 91 29 117 30 30 2 30 25 0 32 -19 5
-30 2 -38 -8 -6 -9 -32 -18 -56 -21 -111 -15 -136 -20 -154 -33 -11 -7 -31
-11 -48 -7 -19 4 -35 0 -47 -11 -10 -9 -31 -16 -49 -14 -16 1 -36 -3 -44 -9
-12 -10 -53 -18 -133 -26 -16 -2 -40 -9 -53 -16 -13 -7 -30 -10 -39 -7 -8 3
-24 1 -36 -6 -12 -6 -34 -11 -50 -10 -15 1 -38 -5 -51 -13 -13 -9 -31 -13 -40
-9 -9 3 -28 -1 -42 -11 -14 -9 -37 -15 -50 -12 -13 2 -32 -2 -41 -9 -10 -7
-34 -14 -53 -14 -20 0 -40 -4 -45 -9 -6 -5 -32 -12 -60 -15 -27 -3 -71 -8 -97
-12 -40 -5 -48 -3 -48 10 0 25 75 53 185 69 120 18 371 70 358 74 -5 2 -36 -1
-68 -6 -268 -41 -293 -44 -349 -37 -77 10 -106 37 -106 100 0 58 25 123 111
291 48 92 72 152 76 186 6 55 1 58 -41 26z"/>
<path d="M904 4592 c4 -7 18 -12 31 -12 13 0 27 -4 30 -10 3 -5 17 -10 31 -10
13 0 32 -4 42 -9 30 -15 116 -41 136 -41 11 0 33 -4 50 -9 151 -47 208 -62
213 -58 7 7 -290 100 -402 126 -49 12 -101 24 -114 28 -17 4 -22 3 -17 -5z"/>
<path d="M1005 4485 c22 -18 86 -53 70 -38 -5 6 -28 20 -50 32 -22 13 -31 15
-20 6z"/>
<path d="M1098 4433 c7 -3 16 -2 19 1 4 3 -2 6 -13 5 -11 0 -14 -3 -6 -6z"/>
<path d="M2811 4399 c-38 -41 -88 -146 -145 -304 -59 -161 -113 -283 -139
-312 -17 -19 -18 -23 -5 -23 23 0 80 68 105 125 11 28 38 102 58 165 49 152
80 214 133 261 56 49 99 63 178 56 35 -2 62 -1 59 3 -7 12 -162 60 -191 60
-15 0 -36 -12 -53 -31z"/>
<path d="M3144 4326 c11 -9 24 -16 30 -16 12 0 7 5 -24 19 -24 11 -24 11 -6
-3z"/>
<path d="M2412 4188 c-6 -6 -28 -14 -49 -18 -38 -7 -38 -7 20 -15 66 -9 88 2
59 28 -14 13 -21 14 -30 5z"/>
<path d="M2248 4183 c6 -2 18 -2 25 0 6 3 1 5 -13 5 -14 0 -19 -2 -12 -5z"/>
<path d="M8768 4183 c12 -2 32 -2 45 0 12 2 2 4 -23 4 -25 0 -35 -2 -22 -4z"/>
<path d="M8670 4171 l-25 -7 32 -11 c27 -10 34 -9 49 8 16 18 16 19 -7 18 -13
-1 -35 -4 -49 -8z"/>
<path d="M8068 4063 c6 -2 18 -2 25 0 6 3 1 5 -13 5 -14 0 -19 -2 -12 -5z"/>
<path d="M7968 4043 c6 -2 18 -2 25 0 6 3 1 5 -13 5 -14 0 -19 -2 -12 -5z"/>
<path d="M7918 4033 c6 -2 18 -2 25 0 6 3 1 5 -13 5 -14 0 -19 -2 -12 -5z"/>
<path d="M2300 3795 c0 -7 57 -35 71 -35 7 0 10 2 8 5 -9 8 -79 35 -79 30z"/>
<path d="M3110 2481 c-58 -15 -150 -40 -205 -54 -186 -49 -397 -125 -427 -154
-23 -22 -36 -50 -25 -54 1 0 70 -4 153 -8 146 -7 152 -9 195 -39 48 -32 106
-98 132 -148 8 -16 36 -53 61 -81 25 -28 46 -56 46 -61 0 -16 -68 -35 -98 -27
-15 4 -58 11 -95 14 l-68 7 8 -26 c4 -14 7 -45 7 -68 0 -39 -5 -48 -40 -80
-23 -21 -64 -50 -93 -67 -29 -16 -82 -50 -119 -73 -37 -24 -98 -60 -137 -79
-38 -20 -88 -48 -110 -63 -22 -15 -92 -55 -155 -90 -122 -67 -382 -212 -515
-288 -44 -25 -131 -74 -194 -110 -149 -83 -191 -110 -191 -122 0 -5 30 5 68
21 55 26 169 75 377 164 17 7 62 25 100 40 93 37 241 104 335 151 25 12 92 43
150 69 58 26 137 62 175 80 39 18 120 56 180 85 129 60 251 130 289 165 15 14
31 25 35 25 5 0 15 7 22 16 23 28 99 56 133 48 36 -7 106 -44 106 -55 0 -4 9
-11 20 -14 11 -3 20 -14 20 -24 0 -23 -71 -58 -270 -136 -80 -31 -154 -60
-165 -65 -17 -7 -228 -89 -505 -197 -141 -55 -377 -145 -405 -155 -16 -5 -57
-20 -90 -33 -146 -56 -201 -79 -209 -87 -6 -4 -16 -8 -23 -8 -7 0 -36 -11 -65
-24 -29 -13 -62 -27 -72 -30 -10 -4 -17 -8 -15 -11 8 -8 220 49 284 75 11 5
88 33 170 63 139 51 179 64 260 87 17 5 75 25 130 45 55 20 116 41 135 46 19
6 53 19 76 30 22 10 48 19 58 19 10 0 24 7 33 15 9 9 23 13 34 10 11 -4 19 -2
19 4 0 6 9 11 20 11 11 0 29 4 40 10 11 6 29 15 40 20 11 5 29 10 39 10 11 0
22 4 26 9 7 12 118 49 174 57 27 4 51 16 64 30 23 27 42 32 34 10 -7 -18 71 7
165 53 130 64 278 199 278 254 0 58 -110 221 -211 312 -118 108 -162 158 -191
222 -30 63 -31 68 -17 107 12 34 27 49 94 93 129 83 128 82 75 82 -25 -1 -92
-13 -150 -28z m15 -1071 c-3 -5 -11 -10 -16 -10 -6 0 -7 5 -4 10 3 6 11 10 16
10 6 0 7 -4 4 -10z"/>
<path d="M7210 2206 c0 -11 70 -46 91 -46 13 0 37 -7 53 -15 15 -8 35 -15 44
-15 9 0 29 -4 46 -10 220 -68 329 -89 254 -49 -63 34 -488 151 -488 135z"/>
<path d="M7090 2186 c0 -2 31 -27 69 -56 79 -60 100 -96 82 -137 -6 -14 -10
-27 -9 -28 2 -2 20 8 41 21 71 46 42 100 -91 164 -82 39 -92 44 -92 36z"/>
<path d="M2500 2131 c0 -13 42 -38 185 -111 136 -69 195 -94 195 -82 0 14
-116 84 -236 143 -122 59 -144 67 -144 50z"/>
<path d="M7570 1995 c-41 -8 -111 -19 -155 -25 -44 -6 -93 -16 -110 -22 -58
-22 -123 -78 -154 -133 -17 -29 -53 -75 -81 -101 -43 -40 -51 -53 -48 -78 3
-26 15 -39 83 -84 90 -59 182 -110 365 -202 69 -35 195 -101 280 -148 197
-108 723 -376 716 -364 -3 5 -74 49 -158 97 -84 49 -218 130 -298 180 -80 50
-197 118 -260 152 -63 33 -160 84 -215 113 -160 84 -239 130 -260 151 -17 17
-18 19 -2 19 22 0 22 2 -8 46 -32 47 -32 79 0 109 25 22 167 95 395 203 109
52 149 76 139 86 -13 13 -159 14 -229 1z"/>
<path d="M6752 1686 c-44 -31 -55 -45 -17 -21 52 32 70 45 60 45 -6 -1 -25
-11 -43 -24z"/>
<path d="M6618 1595 c-40 -27 -75 -107 -63 -144 14 -45 110 -105 257 -162 401
-155 879 -321 1153 -400 327 -95 665 -182 673 -175 1 2 -46 25 -105 51 -60 27
-151 68 -203 93 -269 126 -349 162 -395 178 -50 19 -367 152 -540 228 -76 34
-242 120 -260 136 -34 29 -149 105 -165 109 -8 2 -44 7 -80 13 -36 5 -94 13
-130 19 -36 5 -82 12 -102 15 -44 7 -45 10 -16 41 28 30 22 29 -24 -2z"/>
</g>
</svg>
